<svg width="60" height="58" viewBox="0 0 60 58" fill="none" xmlns="http://www.w3.org/2000/svg">
<path d="M53.3898 57.983H6.6102C4.06787 57.983 2.03394 55.9491 2.03394 53.4068V51.3728C2.03394 49.9491 3.15262 48.8305 4.57627 48.8305H55.4237C56.8475 48.8305 57.9661 49.9492 57.9661 51.3728V53.4068C57.9661 55.9492 55.9321 57.983 53.3898 57.983ZM4.57627 49.8475C3.76267 49.8475 3.05085 50.5594 3.05085 51.373V53.4069C3.05085 55.3391 4.67792 56.9662 6.6102 56.9662H53.3898C55.322 56.9662 56.9492 55.3392 56.9492 53.4069V51.373C56.9492 50.5594 56.2373 49.8475 55.4237 49.8475H4.57627ZM52.3729 45.7797C51.1525 45.7797 50.5424 45.1695 49.9322 44.661C49.4237 44.1525 49.017 43.7457 48.3051 43.7457C47.5933 43.7457 47.0848 44.1525 46.6781 44.661C46.1695 45.1695 45.5594 45.7797 44.2374 45.7797C42.9154 45.7797 42.4069 45.1695 41.7967 44.661C41.2882 44.1525 40.8814 43.7457 40.1696 43.7457C39.4578 43.7457 38.9493 44.1525 38.5425 44.661C38.034 45.1695 37.4239 45.7797 36.1019 45.7797C34.7799 45.7797 34.2714 45.1695 33.6612 44.661C33.1527 44.1525 32.7459 43.7457 32.0341 43.7457C31.3223 43.7457 30.8138 44.1525 30.407 44.661C29.8985 45.1695 29.2884 45.7797 27.9664 45.7797C26.6444 45.7797 26.1359 45.1695 25.5257 44.661C25.0172 44.1525 24.6104 43.7457 23.8986 43.7457C23.1868 43.7457 22.6783 44.1525 22.2715 44.661C21.763 45.1695 21.1528 45.7797 19.8309 45.7797C18.5089 45.7797 18.0003 45.1695 17.3902 44.661C16.8817 44.1525 16.4749 43.7457 15.7631 43.7457C15.0513 43.7457 14.5428 44.1525 14.136 44.661C13.6275 45.1695 13.0173 45.7797 11.6953 45.7797C10.3734 45.7797 9.86484 45.1695 9.25467 44.661C8.74615 44.1525 8.33941 43.7457 7.62759 43.7457C5.79708 43.7457 3.96658 45.5762 3.96658 45.6779C3.76315 45.8813 3.45806 45.8813 3.25475 45.6779C3.05132 45.4744 3.05132 45.1694 3.25475 44.9661C3.35641 44.8644 5.492 42.8305 7.72936 42.8305C8.9497 42.8305 9.55987 43.4406 10.17 43.9491C10.6786 44.4577 11.0853 44.8644 11.7971 44.8644C12.5089 44.8644 13.0175 44.4577 13.4242 43.9491C13.9327 43.4406 14.5429 42.8305 15.8649 42.8305C17.1869 42.8305 17.6954 43.4406 18.3055 43.9491C18.8141 44.4577 19.2208 44.8644 19.9326 44.8644C20.6445 44.8644 21.153 44.4577 21.5597 43.9491C22.0682 43.4406 22.6784 42.8305 24.0004 42.8305C25.3224 42.8305 25.8309 43.4406 26.4411 43.9491C26.9496 44.4577 27.3563 44.8644 28.0681 44.8644C28.78 44.8644 29.2885 44.4577 29.6952 43.9491C30.2037 43.4406 30.8139 42.8305 32.1359 42.8305C33.4579 42.8305 33.9664 43.4406 34.5766 43.9491C35.0851 44.4577 35.4918 44.8644 36.2036 44.8644C36.9155 44.8644 37.424 44.4577 37.8307 43.9491C38.3392 43.4406 38.9494 42.8305 40.2714 42.8305C41.5934 42.8305 42.1019 43.4406 42.7121 43.9491C43.2206 44.4577 43.6273 44.8644 44.3391 44.8644C45.051 44.8644 45.5595 44.4577 45.9662 43.9491C46.4747 43.4406 47.0849 42.8305 48.4069 42.8305C49.7289 42.8305 50.2374 43.4406 50.8476 43.9491C51.3561 44.4577 51.7628 44.8644 52.4747 44.8644C54.3052 44.8644 56.1357 43.0339 56.1357 42.9322C56.3391 42.7288 56.6442 42.7288 56.8475 42.9322C57.0508 43.1357 57.0509 43.4408 56.8475 43.6441C56.7457 43.6441 54.6101 45.7797 52.3729 45.7797ZM57.4575 39.678H2.54233C1.11868 39.678 0 38.5594 0 37.1356V35.1017C0 33.678 1.11868 32.5594 2.54233 32.5594H11.6949C12 32.5594 12.2034 32.7628 12.2034 33.0679C12.2034 33.373 12 33.5764 11.6949 33.5764H2.54233C1.72873 33.5764 1.01691 34.2882 1.01691 35.1018V37.1356C1.01691 37.9492 1.72873 38.6611 2.54233 38.6611H57.4575C58.2711 38.6611 58.983 37.9492 58.983 37.1356V35.1017C58.983 34.2881 58.2711 33.5763 57.4575 33.5763H25.9322C25.6271 33.5763 25.4237 33.3728 25.4237 33.0678C25.4237 32.7627 25.6271 32.5592 25.9322 32.5592H57.4575C58.8813 32.5592 59.9999 33.6779 59.9999 35.1016V37.1356C60 38.5594 58.8813 39.678 57.4575 39.678ZM18.8136 35.6102C18.7119 35.6102 18.5085 35.6102 18.4068 35.5086L12.4068 29.5085H4.47461C4.16953 29.5085 3.9661 29.3051 3.9661 29C3.9661 28.6949 4.16953 28.4915 4.47461 28.4915H12.6102C12.7119 28.4915 12.9153 28.5931 13.017 28.5931L18.7119 34.2881L24.4068 28.5933C24.5084 28.4916 24.6102 28.4916 24.8135 28.4916H55.322C55.627 28.4916 55.8305 28.695 55.8305 29.0001C55.8305 29.3052 55.627 29.5086 55.322 29.5086H25.0169L19.0169 35.5087C19.1187 35.6102 18.9152 35.6102 18.8136 35.6102ZM55.4237 25.4408H4.57627C3.05085 25.4408 2.03394 24.4239 2.03394 22.8984C2.03394 22.5933 1.32211 14.4577 7.32203 7.94929C12.1017 2.6612 19.7288 0.0170898 29.9999 0.0170898C40.271 0.0170898 47.8983 2.66108 52.678 7.94917C58.5762 14.3559 58.0678 22.3898 57.9661 22.8983C57.9661 24.4237 56.9492 25.4408 55.4237 25.4408ZM29.9999 1.034C20.0338 1.034 12.7118 3.57633 8.03385 8.66111C2.33902 14.8645 2.94919 22.7967 3.05085 22.8983C3.05085 23.9152 3.66101 24.4237 4.57627 24.4237H55.4237C56.339 24.4237 56.9492 23.8136 56.9492 22.8983C56.9492 22.7967 57.5593 14.8645 51.8644 8.66099C47.2881 3.57633 39.9661 1.034 29.9999 1.034ZM34.5762 11.2034C33.966 11.2034 33.5593 10.7967 33.5593 10.1865C33.5593 9.57637 33.966 9.16963 34.5762 9.16963C35.1864 9.16963 35.5931 9.57637 35.5931 10.1865C35.5932 10.7967 35.1864 11.2034 34.5762 11.2034ZM46.7796 10.1865C46.1694 10.1865 45.7627 9.7798 45.7627 9.16963C45.7627 8.55946 46.1694 8.15272 46.7796 8.15272C47.3898 8.15272 47.7965 8.55946 47.7965 9.16963C47.7966 9.77968 47.3898 10.1865 46.7796 10.1865ZM39.661 9.16951C39.0508 9.16951 38.6441 8.76277 38.6441 8.1526C38.6441 7.54243 39.0508 7.13569 39.661 7.13569C40.2712 7.13569 40.6779 7.54243 40.6779 8.1526C40.6779 8.76277 40.2712 9.16951 39.661 9.16951ZM28.4745 7.13569C27.8643 7.13569 27.4576 6.72895 27.4576 6.11878C27.4576 5.50861 27.8643 5.10187 28.4745 5.10187C29.0847 5.10187 29.4914 5.50861 29.4914 6.11878C29.4914 6.72895 29.0847 7.13569 28.4745 7.13569ZM35.5932 5.10175C34.9831 5.10175 34.5763 4.69501 34.5763 4.08484C34.5763 3.47467 34.9831 3.06794 35.5932 3.06794C36.2034 3.06794 36.6101 3.47467 36.6101 4.08484C36.6101 4.69501 36.2034 5.10175 35.5932 5.10175Z" fill="#51565F"/>
</svg>
