<?xml version="1.0" encoding="UTF-8" standalone="no"?>
<svg
   xmlns:dc="http://purl.org/dc/elements/1.1/"
   xmlns:cc="http://creativecommons.org/ns#"
   xmlns:rdf="http://www.w3.org/1999/02/22-rdf-syntax-ns#"
   xmlns:svg="http://www.w3.org/2000/svg"
   xmlns="http://www.w3.org/2000/svg"
   viewBox="0 0 666.66669 666.66669"
   height="666.66669"
   width="666.66669"
   xml:space="preserve"
   id="svg2"
   version="1.1"><metadata
     id="metadata8"><rdf:RDF><cc:Work
         rdf:about=""><dc:format>image/svg+xml</dc:format><dc:type
           rdf:resource="http://purl.org/dc/dcmitype/StillImage" /></cc:Work></rdf:RDF></metadata><defs
     id="defs6" /><g
     transform="matrix(1.3333333,0,0,-1.3333333,0,666.66667)"
     id="g10"><g
       transform="scale(0.1)"
       id="g12">
	   <path
         id="path14"
         style="fill:#180f0e;fill-opacity:1;fill-rule:nonzero;stroke:none"
         d="M 5000,5000 H 0 V 0 h 5000 v 5000" />

		 <path
         id="path28"
         style="fill:#ffffff;fill-opacity:1;fill-rule:nonzero;stroke:none"
         d="m 4452.56,4112.44 h -68.45 c 0,-109.33 0,-243.88 0,-243.88 H 4282.8 c 0,0 0,133.29 0,243.88 h -48.18 v 86.19 h 48.18 v 55.65 c 0,39.98 19,102.31 102.31,102.31 l 75.1,-0.28 v -83.66 c 0,0 -45.66,0 -54.58,0 -8.81,0 -21.43,-4.41 -21.43,-23.42 v -50.69 h 77.19 z m 26.88,325.49 h -262.99 c -106.93,0 -193.8,-86.98 -193.8,-193.81 v -262.99 c 0,-106.93 86.87,-193.91 193.8,-193.91 h 262.99 c 106.94,0 193.91,86.98 193.91,193.91 v 262.99 c 0,106.83 -86.97,193.81 -193.91,193.81" />
		 
		 
</g></g></svg>