<?xml version="1.0" encoding="UTF-8" standalone="no"?>
<svg
   xmlns:dc="http://purl.org/dc/elements/1.1/"
   xmlns:cc="http://creativecommons.org/ns#"
   xmlns:rdf="http://www.w3.org/1999/02/22-rdf-syntax-ns#"
   xmlns:svg="http://www.w3.org/2000/svg"
   xmlns="http://www.w3.org/2000/svg"
   viewBox="0 0 666.66669 666.66669"
   height="666.66669"
   width="666.66669"
   xml:space="preserve"
   id="svg2"
   version="1.1"><metadata
     id="metadata8"><rdf:RDF><cc:Work
         rdf:about=""><dc:format>image/svg+xml</dc:format><dc:type
           rdf:resource="http://purl.org/dc/dcmitype/StillImage" /></cc:Work></rdf:RDF></metadata><defs
     id="defs6" /><g
     transform="matrix(1.3333333,0,0,-1.3333333,0,666.66667)"
     id="g10"><g
       transform="scale(0.1)"
       id="g12"><path
         id="path14"
         style="fill:#180f0e;fill-opacity:1;fill-rule:nonzero;stroke:none"
         d="M 5000,5000 H 0 V 0 h 5000 v 5000" /><path
         id="path16"
         style="fill:#ffffff;fill-opacity:1;fill-rule:nonzero;stroke:none"
         d="M 839.496,4008.61 H 669.633 c -4.258,0 -7.707,3.44 -7.707,7.7 v 184.29 c 0,3.03 1.762,5.81 4.535,7.04 12.863,5.71 27.109,8.9 42.102,8.9 56.679,0 102.742,-45.37 103.91,-101.77 8.793,4.79 19.004,7.32 29.836,6.8 28.355,-1.37 51.621,-24.13 53.566,-52.46 2.27,-33.02 -23.844,-60.5 -56.379,-60.5 z m -184.84,7.96 c 0,-4.29 -3.472,-7.76 -7.761,-7.76 -4.282,0 -7.758,3.47 -7.758,7.76 v 180.27 c 0,4.29 3.468,7.77 7.758,7.77 4.289,0 7.761,-3.48 7.761,-7.77 z m -25.679,0 c 0,-4.29 -3.481,-7.76 -7.766,-7.76 -4.281,0 -7.758,3.47 -7.758,7.76 v 161.1 c 0,4.29 3.473,7.76 7.758,7.76 4.285,0 7.766,-3.47 7.766,-7.76 z m -25.684,0 c 0,-4.29 -3.48,-7.76 -7.766,-7.76 -4.281,0 -7.757,3.47 -7.757,7.76 v 152.37 c 0,4.28 3.468,7.76 7.757,7.76 4.286,0 7.766,-3.48 7.766,-7.76 z m -25.688,0 c 0,-4.29 -3.472,-7.76 -7.761,-7.76 -4.281,0 -7.758,3.47 -7.758,7.76 v 164.01 c 0,4.29 3.477,7.76 7.758,7.76 4.289,0 7.761,-3.47 7.761,-7.76 z m -25.679,0 c 0,-4.29 -3.481,-7.76 -7.766,-7.76 -4.281,0 -7.758,3.47 -7.758,7.76 v 156.25 c 0,4.29 3.469,7.76 7.758,7.76 4.285,0 7.766,-3.47 7.766,-7.76 z m -25.688,0 c 0,-4.29 -3.472,-7.76 -7.758,-7.76 -4.285,0 -7.761,3.47 -7.761,7.76 v 140.72 c 0,4.29 3.476,7.76 7.761,7.76 4.29,0 7.758,-3.47 7.758,-7.76 z m -25.679,0 c 0,-4.29 -3.473,-7.76 -7.762,-7.76 -4.285,0 -7.762,3.47 -7.762,7.76 v 110.63 c 0,4.29 3.477,7.76 7.762,7.76 4.281,0 7.762,-3.47 7.762,-7.76 z m -25.688,0 c 0,-4.29 -3.476,-7.76 -7.758,-7.76 -4.285,0 -7.761,3.47 -7.761,7.76 v 98.02 c 0,4.28 3.476,7.76 7.761,7.76 4.289,0 7.758,-3.48 7.758,-7.76 z m -25.683,2.89 c 0,-4.28 -3.469,-7.76 -7.758,-7.76 -4.285,0 -7.762,3.48 -7.762,7.76 v 92.23 c 0,4.29 3.477,7.76 7.762,7.76 4.289,0 7.758,-3.47 7.758,-7.76 z m -25.68,18.82 c 0,-4.28 -3.473,-7.76 -7.762,-7.76 -4.285,0 -7.762,3.48 -7.762,7.76 v 53.15 c 0,4.28 3.477,7.75 7.762,7.75 4.289,0 7.762,-3.47 7.762,-7.75 z m 359.933,399.65 H 520.449 c -106.933,0 -193.804,-86.98 -193.804,-193.81 v -262.99 c 0,-106.93 86.871,-193.91 193.804,-193.91 h 262.992 c 106.93,0 193.907,86.98 193.907,193.91 v 262.99 c 0,106.83 -86.977,193.81 -193.907,193.81" /><path
         id="path18"
         style="fill:#ffffff;fill-opacity:1;fill-rule:nonzero;stroke:none"
         d="m 1728.25,4266.98 -94.47,-180.91 h 94.47 v -119.53 h -156.58 l -51.2,-97.98 h -96.72 v 79.68 l 98.79,189.39 h -98.79 v 120.7 h 161.81 l 51.29,98.26 h 91.4 z m -20.81,170.95 h -262.99 c -106.94,0 -193.8,-86.98 -193.8,-193.81 v -262.99 c 0,-106.93 86.86,-193.91 193.8,-193.91 h 262.99 c 106.94,0 193.91,86.98 193.91,193.91 v 262.99 c 0,106.83 -86.97,193.81 -193.91,193.81" /><path
         id="path20"
         style="fill:#ffffff;fill-opacity:1;fill-rule:nonzero;stroke:none"
         d="m 2421.56,4089.26 c -7.19,3.33 -17.35,5.03 -30.36,5.15 h -65.18 v -80.93 h 64.17 c 13.18,0 23.38,1.73 30.75,5.33 13.28,6.62 19.93,19.22 19.93,37.92 0,15.77 -6.44,26.68 -19.31,32.53" /><path
         id="path22"
         style="fill:#ffffff;fill-opacity:1;fill-rule:nonzero;stroke:none"
         d="m 2743.96,4062.95 h -158.37 c 0.87,-21.86 8.41,-37.15 22.73,-45.9 8.63,-5.49 19.09,-8.16 31.35,-8.16 12.92,0 23.46,3.26 31.56,9.98 4.41,3.56 8.31,8.58 11.68,14.92 h 58.05 c -1.53,-12.91 -8.51,-26.01 -21.08,-39.31 -19.45,-21.15 -46.75,-31.76 -81.79,-31.76 -28.96,0 -54.48,8.95 -76.63,26.77 -22.08,17.89 -33.17,46.89 -33.17,87.13 0,37.74 9.96,66.62 29.93,86.72 20.05,20.14 45.93,30.17 77.82,30.17 18.9,0 35.94,-3.38 51.15,-10.17 15.15,-6.8 27.67,-17.5 37.55,-32.21 8.92,-12.95 14.66,-27.94 17.34,-45 1.47,-9.93 2.15,-24.34 1.88,-43.18 z m -252.59,-59 c -5.76,-9.45 -12.9,-17.44 -21.49,-23.86 -9.66,-7.43 -21.11,-12.52 -34.26,-15.25 -13.2,-2.72 -27.49,-4.1 -42.88,-4.1 h -136.75 v 303.66 h 146.65 c 36.96,-0.6 63.17,-11.31 78.64,-32.35 9.29,-12.89 13.89,-28.37 13.89,-46.36 0,-18.56 -4.66,-33.42 -14.03,-44.71 -5.22,-6.33 -12.93,-12.09 -23.13,-17.28 15.46,-5.65 27.18,-14.56 35.01,-26.82 7.89,-12.23 11.83,-27.07 11.83,-44.48 0,-18.02 -4.44,-34.18 -13.48,-48.45 z m 83.05,247.85 h 122.3 v -30.37 h -122.3 z m 57.03,186.13 h -263 c -106.93,0 -193.8,-86.98 -193.8,-193.81 v -262.99 c 0,-106.93 86.87,-193.91 193.8,-193.91 h 263 c 106.93,0 193.9,86.98 193.9,193.91 v 262.99 c 0,106.83 -86.97,193.81 -193.9,193.81" /><path
         id="path24"
         style="fill:#ffffff;fill-opacity:1;fill-rule:nonzero;stroke:none"
         d="m 2422.37,4152.21 c 8.22,5.01 12.32,13.92 12.32,26.7 0,14.13 -5.43,23.5 -16.31,28.02 -9.36,3.13 -21.32,4.74 -35.85,4.74 h -56.51 v -66.99 h 64.25 c 13.21,0 23.88,2.51 32.1,7.53" /><path
         id="path26"
         style="fill:#ffffff;fill-opacity:1;fill-rule:nonzero;stroke:none"
         d="m 2636.04,4146.62 c -14.62,0 -25.91,-4.21 -33.93,-12.48 -8.08,-8.25 -13.11,-19.47 -15.17,-33.68 h 98 v 0.01 c -1.06,15.11 -6.11,26.55 -15.19,34.37 -9.02,7.84 -20.28,11.78 -33.71,11.78" /><path
         id="path28"
         style="fill:#ffffff;fill-opacity:1;fill-rule:nonzero;stroke:none"
         d="m 4452.56,4112.44 h -68.45 c 0,-109.33 0,-243.88 0,-243.88 H 4282.8 c 0,0 0,133.29 0,243.88 h -48.18 v 86.19 h 48.18 v 55.65 c 0,39.98 19,102.31 102.31,102.31 l 75.1,-0.28 v -83.66 c 0,0 -45.66,0 -54.58,0 -8.81,0 -21.43,-4.41 -21.43,-23.42 v -50.69 h 77.19 z m 26.88,325.49 h -262.99 c -106.93,0 -193.8,-86.98 -193.8,-193.81 v -262.99 c 0,-106.93 86.87,-193.91 193.8,-193.91 h 262.99 c 106.94,0 193.91,86.98 193.91,193.91 v 262.99 c 0,106.83 -86.97,193.81 -193.91,193.81" /><path
         id="path30"
         style="fill:#ffffff;fill-opacity:1;fill-rule:nonzero;stroke:none"
         d="m 3667.06,4260.23 c -11.6,-17.34 -25.67,-32.79 -41.84,-45.91 -4.26,-3.46 -6.7,-8.54 -6.69,-13.94 v -1.6 c 0,-33.62 -6.54,-68.83 -18.89,-101.84 -12.96,-34.62 -31.65,-65.93 -55.56,-93.05 -25.66,-29.11 -56.19,-51.99 -90.73,-67.99 -37.69,-17.45 -79.4,-26.3 -124,-26.3 -50.96,0 -101.14,13.52 -145.12,39.13 -3.19,1.85 -4.93,5.63 -3.99,9.2 0.96,3.63 4.13,6.08 7.88,6.08 l 12.16,-0.01 c 39.04,0 76.55,11.41 108.74,33.02 -38.8,6.3 -71.23,34.07 -83.29,71.73 -1.27,3.97 2.18,7.86 6.27,7.08 5.88,-1.12 11.84,-1.69 17.74,-1.69 0.74,0 1.49,0 2.24,0.02 -37.17,16.98 -61.97,54.69 -61.45,97.06 0.05,4.17 4.53,6.76 8.17,4.74 7.53,-4.18 15.63,-7.3 24,-9.29 -19.91,19.6 -31.36,46.47 -31.36,75 0,18.62 4.92,36.9 14.25,52.9 1.93,3.31 6.58,3.68 9.01,0.7 47.6,-58.39 114.94,-94.37 189.62,-101.31 0.13,0 0.25,-0.01 0.37,-0.01 1.1,0 2.16,0.48 2.9,1.32 0.43,0.47 1.11,1.49 0.95,2.94 -1.44,12.69 -0.6,25.73 2.5,38.75 8.26,34.72 34.58,62.86 68.7,73.44 11,3.41 22.22,5.15 33.33,5.15 25.66,0 50.39,-9.34 69.62,-26.28 2.51,-2.22 5.71,-3.43 9,-3.43 1.09,0 2.17,0.13 3.21,0.39 18.07,4.57 35.39,11.72 51.45,21.25 4.36,2.59 9.59,-1.58 8.05,-6.4 -5.4,-16.88 -14.97,-32.01 -27.7,-44.11 11.55,2.75 22.8,6.55 33.65,11.35 5.04,2.24 9.87,-3.51 6.81,-8.09 z m -111.62,177.7 h -262.99 c -106.93,0 -193.8,-86.98 -193.8,-193.81 v -262.99 c 0,-106.93 86.87,-193.91 193.8,-193.91 h 262.99 c 106.93,0 193.92,86.98 193.92,193.91 v 262.99 c 0,106.83 -86.99,193.81 -193.92,193.81" /><path
         id="path32"
         style="fill:#ffffff;fill-opacity:1;fill-rule:nonzero;stroke:none"
         d="m 651.988,1970.88 c -61.152,0 -110.91,49.75 -110.91,110.91 0,61.15 49.758,110.91 110.91,110.91 61.153,0 110.91,-49.76 110.91,-110.91 0,-61.16 -49.757,-110.91 -110.91,-110.91 z m 110.934,221.83 c -5.879,0 -11.527,2.34 -15.688,6.5 l -37.863,37.86 H 594.625 l -37.863,-37.86 c -4.16,-4.16 -9.805,-6.5 -15.684,-6.5 h -88.73 v -244.07 h 399.3 c 0.856,0 1.223,0.1 1.223,0.1 l -1.223,243.97 h -88.726" /><path
         id="path34"
         style="fill:#ffffff;fill-opacity:1;fill-rule:nonzero;stroke:none"
         d="m 651.988,2148.33 c -36.695,0 -66.55,-29.84 -66.55,-66.54 0,-36.7 29.855,-66.55 66.55,-66.55 36.696,0 66.547,29.85 66.547,66.55 0,36.7 -29.851,66.54 -66.547,66.54" /><path
         id="path36"
         style="fill:#ffffff;fill-opacity:1;fill-rule:nonzero;stroke:none"
         d="m 896.012,1948.64 c 0,-21.51 -15.551,-44.36 -44.364,-44.36 h -399.3 c -21.508,0 -44.364,15.55 -44.364,44.36 v 244.07 c 0,21.51 15.555,44.36 44.364,44.36 h 79.547 l 37.867,37.87 c 4.156,4.16 9.801,6.5 15.676,6.5 h 133.117 c 5.883,0 11.523,-2.34 15.683,-6.5 l 28.66,-28.66 v 12.97 c 0,12.24 9.934,22.18 22.18,22.18 h 44.363 c 12.254,0 22.184,-9.94 22.184,-22.18 v -22.18 h 0.023 c 21.512,0 44.364,-15.55 44.364,-44.36 z M 783.441,2418.21 H 520.449 c -106.933,0 -193.804,-86.98 -193.804,-193.81 v -262.98 c 0,-106.94 86.871,-193.91 193.804,-193.91 h 262.992 c 106.93,0 193.907,86.97 193.907,193.91 v 262.98 c 0,106.83 -86.977,193.81 -193.907,193.81" /><path
         id="path38"
         style="fill:#ffffff;fill-opacity:1;fill-rule:nonzero;stroke:none"
         d="m 2591.72,2253.58 c -36.41,0 -50.87,-15.65 -68.77,-39.53 -5.24,-6.99 -13.81,-11.16 -22.94,-11.16 -9.14,0 -17.72,4.18 -22.96,11.18 -17.9,23.87 -32.35,39.51 -68.77,39.51 -58.6,0 -90.86,-33.79 -90.86,-95.16 0,-80.09 93,-154.42 180.19,-217.8 l 2.39,-1.74 2.39,1.74 c 87.18,63.37 180.19,137.71 180.19,217.8 0,61.37 -32.27,95.16 -90.86,95.16" /><path
         id="path40"
         style="fill:#ffffff;fill-opacity:1;fill-rule:nonzero;stroke:none"
         d="m 2526.49,1887.23 -9.62,-7 c -4.94,-3.57 -10.76,-5.46 -16.87,-5.46 -6.12,0 -11.97,1.9 -16.89,5.48 l -9.56,6.95 c -85.01,61.64 -213.5,154.79 -213.5,271.22 0,92.65 58.19,152.53 148.23,152.53 35.97,0 65.07,-10.78 88.96,-32.94 l 2.76,-2.58 2.76,2.58 c 23.89,22.16 52.98,32.94 88.96,32.94 90.05,0 148.23,-59.88 148.23,-152.53 0,-116.41 -128.46,-209.55 -213.46,-271.19 z m 104.96,530.98 h -263 c -106.93,0 -193.8,-86.98 -193.8,-193.81 v -262.98 c 0,-106.94 86.87,-193.91 193.8,-193.91 h 263 c 106.93,0 193.9,86.97 193.9,193.91 v 262.98 c 0,106.83 -86.97,193.81 -193.9,193.81" /><path
         id="path42"
         style="fill:#ffffff;fill-opacity:1;fill-rule:nonzero;stroke:none"
         d="m 3446.73,2086.8 c -7.03,5.05 -14.41,9.56 -22.86,11.68 -12.98,3.2 -24.79,1.35 -33.94,-9.15 -7.17,-8.2 -10.57,-17.89 -10.57,-29.36 0.13,-1.09 0.2,-2.8 0.34,-4.44 1.42,-16.05 12.08,-28.13 27.64,-30.93 8.54,-1.56 16.79,-0.47 24.85,2.67 17.14,6.69 30.24,18.71 42.19,32.29 0.89,0.96 0.48,1.44 -0.2,2.18 -8.6,8.94 -17.34,17.75 -27.45,25.06" /><path
         id="path44"
         style="fill:#ffffff;fill-opacity:1;fill-rule:nonzero;stroke:none"
         d="m 3584.16,2099.56 c -10.86,-1.43 -19.73,-6.83 -28.19,-13.31 -9.43,-7.17 -17.28,-15.98 -25.4,-24.51 -1.1,-1.15 -0.62,-1.77 0.2,-2.66 5.67,-6.35 11.61,-12.57 18.23,-17.96 11.13,-8.94 23.15,-15.77 37.76,-17.13 16.44,-1.57 29.76,6.15 35.7,21.1 1.97,5.18 2.86,10.57 2.86,16.85 0.07,1.58 -0.2,3.9 -0.48,6.22 -2.58,20.69 -20,34.13 -40.68,31.4" /><path
         id="path46"
         style="fill:#ffffff;fill-opacity:1;fill-rule:nonzero;stroke:none"
         d="m 3662.12,2029.04 c -11.74,-32.57 -38.84,-51.13 -73.46,-50.72 -21.09,0.21 -39.11,8.4 -55.56,20.89 -10.73,8.12 -19.87,17.88 -28.74,27.99 -1.51,1.71 -2.19,2.05 -3.97,0.2 -9.08,-9.42 -17.61,-19.25 -27.78,-27.51 -12.83,-10.45 -27.03,-18.37 -43.63,-20.61 -29.35,-3.97 -54.75,3.75 -74.41,26.82 -4.5,5.19 -7.85,11.13 -10.59,17.48 -0.41,0.76 -0.47,1.7 -1.36,2.39 -3.89,-8.33 -8.66,-16.05 -14.94,-22.74 -15.84,-16.78 -35.38,-25.52 -58.38,-26.35 -16.65,-0.61 -32.9,1.51 -48.13,8.74 -25.4,12.02 -39.39,32.09 -41.17,60.42 -0.14,2.18 0.48,2.73 2.67,2.66 13.65,-0.07 27.3,-0.07 41.03,0 2.04,0.07 2.59,-0.55 2.93,-2.59 2.67,-15.56 11.07,-26.42 26.77,-30.38 21.98,-5.4 42.12,7.03 47.85,29.63 3.9,15.23 2.26,29.77 -7.85,42.39 -6.69,8.4 -15.77,12.49 -26.42,13.25 -15.36,1.09 -27.93,-3.96 -37,-16.73 -0.82,-1.15 -1.85,-1.5 -3.21,-1.5 -12.29,0.07 -24.65,0.07 -36.94,0 -2.18,0 -2.59,0.62 -2.25,2.66 6.42,35.5 12.77,71.14 19.12,106.71 0.82,4.84 1.78,9.7 2.52,14.61 0.27,1.57 0.89,2.19 2.6,2.19 40.96,-0.07 81.92,-0.07 122.82,0 1.97,0 2.38,-0.69 2.38,-2.47 -0.07,-10.99 -0.14,-21.98 0,-32.97 0,-2.25 -0.55,-2.8 -2.79,-2.8 -29.36,0.07 -58.64,0 -88,0.07 -2.46,0 -3.55,-0.41 -3.96,-3.14 -2.6,-15.57 -5.46,-31.14 -8.2,-46.77 -0.13,-0.61 -0.54,-1.56 0.14,-1.97 0.82,-0.48 1.23,0.48 1.71,0.95 13.45,12.9 29.83,16.86 47.92,15.9 17.41,-0.95 32.22,-7.44 44.51,-19.79 5.13,-5.19 9.08,-11.13 12.29,-17.68 0.35,-0.68 0.69,-1.37 1.3,-2.6 3.48,9.09 7.79,17.07 13.79,23.97 13.31,15.09 30.11,23.28 50.11,25.12 28.12,2.59 51.27,-8.27 71.47,-26.76 8.4,-7.65 15.84,-16.25 23.15,-24.92 1.57,-1.85 2.19,-1.99 3.83,-0.07 9.41,11.13 18.77,22.32 30.31,31.4 13.31,10.45 28.06,18.03 45.06,20 42.05,4.93 77.27,-17.95 86.22,-61.43 3.75,-18.3 2.6,-36.32 -3.76,-53.94 z m -106.68,389.17 h -262.99 c -106.93,0 -193.8,-86.98 -193.8,-193.81 v -262.98 c 0,-106.94 86.87,-193.91 193.8,-193.91 h 262.99 c 106.93,0 193.92,86.97 193.92,193.91 v 262.98 c 0,106.83 -86.99,193.81 -193.92,193.81" /><path
         id="path48"
         style="fill:#ffffff;fill-opacity:1;fill-rule:nonzero;stroke:none"
         d="m 4422.23,2095.54 -133.45,67.61 c -3.57,1.81 -7.78,-0.78 -7.78,-4.77 v -131.27 c 0,-3.95 4.11,-6.53 7.66,-4.83 l 133.45,63.64 c 4.01,1.91 4.08,7.61 0.12,9.62" /><path
         id="path50"
         style="fill:#ffffff;fill-opacity:1;fill-rule:nonzero;stroke:none"
         d="m 4592.01,2021.54 c 0,-55.97 -45.38,-101.35 -101.36,-101.35 h -285.31 c -55.97,0 -101.36,45.38 -101.36,101.35 v 142.63 c 0,55.98 45.39,101.36 101.36,101.36 h 285.31 c 55.98,0 101.36,-45.38 101.36,-101.36 z m -112.57,396.67 h -262.99 c -106.93,0 -193.8,-86.98 -193.8,-193.81 v -262.98 c 0,-106.94 86.87,-193.91 193.8,-193.91 h 262.99 c 106.94,0 193.91,86.97 193.91,193.91 v 262.98 c 0,106.83 -86.97,193.81 -193.91,193.81" /><path
         id="path52"
         style="fill:#ffffff;fill-opacity:1;fill-rule:nonzero;stroke:none"
         d="m 1433.7,2061.26 82.7,-110.29 181.7,136.21 -82.7,110.29 -181.7,-136.21" /><path
         id="path54"
         style="fill:#ffffff;fill-opacity:1;fill-rule:nonzero;stroke:none"
         d="m 1712.5,2251.77 c -22.98,0 -41.56,-12.7 -45.05,-15.25 l -19.35,-14.55 82.7,-110.2 19.3,14.49 c 2.55,2.02 15.54,12.77 23.4,28.98 10.63,22.19 7.44,44.92 -9.51,67.53 -14.47,19.24 -31.8,29 -51.49,29" /><path
         id="path56"
         style="fill:#ffffff;fill-opacity:1;fill-rule:nonzero;stroke:none"
         d="m 1397.05,1980.7 c 8.12,-4.45 15,-10.4 20.54,-17.71 5.52,-7.4 9.33,-15.73 11.35,-24.79 l 44.06,2.44 -61.29,81.83 -14.66,-41.77" /><path
         id="path58"
         style="fill:#ffffff;fill-opacity:1;fill-rule:nonzero;stroke:none"
         d="m 1816.58,2152.9 c -10.18,-33.46 -34.62,-53.87 -41.87,-59.33 l -250.11,-187.6 c -3.2,-2.41 -7.04,-3.83 -11.07,-4.1 l -161.79,-8.9 h -0.14 c -6.47,0 -12.63,3.02 -16.48,8.07 -4.15,5.63 -5.18,12.8 -2.81,19.25 l 53.47,151.84 c 1.46,3.94 3.81,7.14 7.03,9.54 l 250.09,187.6 c 7.26,5.5 33.82,23.49 69.7,23.49 22.82,0 55.93,-7.89 84.1,-45.49 22.98,-30.61 29.67,-62.36 19.88,-94.37 z m -109.18,265.27 h -263 c -106.9,0 -193.8,-86.9 -193.8,-193.8 v -263 c 0,-106.9 86.9,-193.9 193.8,-193.9 h 263 c 107,0 194,87 194,193.9 v 263 c 0,106.9 -87,193.8 -194,193.8" /><path
         id="path60"
         style="fill:#ffffff;fill-opacity:1;fill-rule:nonzero;stroke:none"
         d="m 3438.35,3101.09 c 2.75,0.92 5.5,1.75 8.24,2.5 -5.24,11.9 -10.9,23.71 -16.89,35.44 -107.34,-32.12 -210.28,-29.78 -213.93,-29.7 -0.09,-2.16 -0.17,-4.33 -0.17,-6.58 0,-53.5 20.05,-102.17 53.26,-139.12 0.08,0 57.16,101.1 169.49,137.46" /><path
         id="path62"
         style="fill:#ffffff;fill-opacity:1;fill-rule:nonzero;stroke:none"
         d="m 3412.39,3171.15 c -36.02,64.07 -74.56,116.33 -77.3,120.08 -58.17,-27.46 -101.52,-80.97 -115.08,-145.54 5.49,-0.08 92.36,-1.16 192.38,25.46" /><path
         id="path64"
         style="fill:#ffffff;fill-opacity:1;fill-rule:nonzero;stroke:none"
         d="m 3459.49,3068.64 c -123.06,-42.94 -163.17,-129.39 -163.59,-130.14 35.36,-27.63 79.79,-44.18 128.06,-44.18 28.87,0 56.33,5.9 81.38,16.55 -3.08,18.23 -15.23,81.97 -44.52,158.19 -0.5,-0.17 -0.92,-0.26 -1.33,-0.42" /><path
         id="path66"
         style="fill:#ffffff;fill-opacity:1;fill-rule:nonzero;stroke:none"
         d="m 3374.03,3305.12 c -0.08,-0.08 -0.16,-0.16 -0.33,-0.16 0.25,0.08 0.33,0.08 0.33,0.08 v 0.08" /><path
         id="path68"
         style="fill:#ffffff;fill-opacity:1;fill-rule:nonzero;stroke:none"
         d="m 3561.59,3259.11 c -36.7,32.36 -84.87,52 -137.63,52 -16.89,0 -33.36,-2.08 -49.1,-5.9 3.08,-4.08 42.28,-56.09 77.89,-121.57 78.64,29.53 108.34,74.72 108.84,75.47" /><path
         id="path70"
         style="fill:#ffffff;fill-opacity:1;fill-rule:nonzero;stroke:none"
         d="m 3663.02,3053.58 c -3.16,-15.73 -7.99,-31.12 -14.23,-45.93 -6.08,-14.4 -13.64,-28.38 -22.46,-41.44 -8.74,-12.9 -18.72,-25.05 -29.71,-36.11 -11.06,-10.99 -23.21,-21.06 -36.11,-29.71 -13.07,-8.82 -27.04,-16.39 -41.53,-22.55 -14.72,-6.16 -30.11,-10.98 -45.85,-14.23 -16.05,-3.33 -32.61,-4.91 -49.17,-4.91 -16.56,0 -33.03,1.58 -49.1,4.91 -15.72,3.25 -31.12,8.07 -45.85,14.23 -14.47,6.16 -28.45,13.73 -41.52,22.55 -12.89,8.74 -25.04,18.72 -36.03,29.71 -11.06,11.06 -21.13,23.13 -29.78,36.11 -8.83,13.06 -16.4,27.04 -22.56,41.44 -6.15,14.72 -10.98,30.2 -14.23,45.93 -3.24,15.98 -4.9,32.53 -4.9,49.17 0,16.57 1.66,33.04 4.9,49.1 3.25,15.73 7.99,31.12 14.23,45.93 6.16,14.4 13.73,28.38 22.47,41.36 8.82,12.9 18.81,25.13 29.79,36.11 11.07,11.07 23.22,21.05 36.11,29.79 13.07,8.82 27.05,16.39 41.45,22.55 14.8,6.16 30.2,10.98 45.92,14.14 16.07,3.33 32.54,5 49.1,5 16.56,0 33.12,-1.67 49.17,-5 15.74,-3.16 31.13,-7.98 45.85,-14.14 14.56,-6.16 28.46,-13.73 41.53,-22.55 12.81,-8.74 25.05,-18.72 36.11,-29.79 10.99,-10.98 21.06,-23.13 29.71,-36.11 8.82,-12.98 16.38,-26.96 22.46,-41.36 6.24,-14.81 11.07,-30.2 14.23,-45.93 3.33,-16.06 5,-32.53 5,-49.1 0,-16.64 -1.67,-33.11 -5,-49.17 z m -107.58,374.49 h -262.99 c -106.93,0 -193.8,-86.98 -193.8,-193.81 v -262.99 c 0,-106.93 86.87,-193.91 193.8,-193.91 h 262.99 c 106.93,0 193.92,86.98 193.92,193.91 v 262.99 c 0,106.83 -86.99,193.81 -193.92,193.81" /><path
         id="path72"
         style="fill:#ffffff;fill-opacity:1;fill-rule:nonzero;stroke:none"
         d="m 3499.84,3078.71 c 27.39,-75.14 38.45,-136.3 40.61,-148.87 46.77,31.62 80.05,81.72 89.29,139.8 -4.33,1.41 -62.57,19.8 -129.9,9.07" /><path
         id="path74"
         style="fill:#ffffff;fill-opacity:1;fill-rule:nonzero;stroke:none"
         d="m 3468.81,3152.6 c 4.82,-9.9 9.48,-19.97 13.81,-30.21 1.58,-3.58 3,-7.15 4.5,-10.73 71.64,8.98 142.21,-6.24 145.12,-6.91 -0.42,49.51 -18.15,94.86 -47.36,130.31 -0.33,-0.5 -33.78,-48.84 -116.07,-82.46" /><path
         id="path76"
         style="fill:#ffffff;fill-opacity:1;fill-rule:nonzero;stroke:none"
         d="m 682.77,2996.04 c -28.825,2.23 -40.938,16.52 -63.54,30.24 -12.429,-65.18 -27.609,-127.67 -72.582,-160.31 -13.898,98.52 20.379,172.52 36.29,251.07 -27.125,45.67 3.269,137.6 60.492,114.94 70.433,-27.85 -60.981,-169.82 27.238,-187.55 92.102,-18.51 129.699,159.8 72.578,217.81 -82.519,83.73 -240.203,1.9 -220.812,-117.98 4.722,-29.3 35.007,-38.2 12.097,-78.64 -52.816,11.7 -68.57,53.35 -66.543,108.89 3.266,90.9 81.68,154.55 160.328,163.36 99.461,11.13 192.817,-36.53 205.704,-130.09 14.496,-105.59 -44.903,-219.95 -151.25,-211.74 z m 100.671,432.03 H 520.449 c -106.933,0 -193.804,-86.98 -193.804,-193.81 v -262.99 c 0,-106.93 86.871,-193.91 193.804,-193.91 h 262.992 c 106.93,0 193.907,86.98 193.907,193.91 v 262.99 c 0,106.83 -86.977,193.81 -193.907,193.81" /><path
         id="path78"
         style="fill:#ffffff;fill-opacity:1;fill-rule:nonzero;stroke:none"
         d="m 2743.79,3211.49 c -2.11,-46.01 -34.91,-109.24 -96.17,-188.97 -67.7,-88.08 -120.06,-125.29 -163.95,-125.29 -42,0 -82.93,117.69 -109.87,216.42 -14.15,50.83 -26.01,72.19 -39.68,71.52 -12.58,-0.65 -29.25,-12.5 -46.89,-25.06 l -0.56,-0.39 c -5.69,-4.05 -13.51,-2.9 -17.78,2.62 l -10.17,13.09 c -4.26,5.49 -3.46,13.32 1.81,17.82 2.18,1.87 5.01,4.32 8.37,7.24 54.53,47.38 120.95,101.76 150.73,101.76 39.07,0 45.1,-21.38 57.12,-63.94 1.15,-4.08 43.04,-189.83 54.64,-189.83 3.49,0 15.63,15.48 37.6,50.02 18.04,28.34 32.6,55.13 35.43,65.13 3.36,11.86 2.74,20.95 -1.84,27.01 -5.98,7.9 -17.98,9.56 -26.99,9.56 -6.72,0 -13.69,-0.98 -20.71,-2.91 -3.58,-0.99 -7.38,0.1 -9.91,2.85 -2.54,2.76 -3.32,6.65 -2.04,10.16 24.42,66.9 68.18,99.81 130.05,97.81 21.91,-0.64 39.01,-7.42 50.83,-20.16 14.84,-15.99 21.56,-41.71 19.98,-76.46 z m -112.34,216.58 h -263 c -106.93,0 -193.8,-86.98 -193.8,-193.81 v -262.99 c 0,-106.93 86.87,-193.91 193.8,-193.91 h 263 c 106.93,0 193.9,86.98 193.9,193.91 v 262.99 c 0,106.83 -86.97,193.81 -193.9,193.81" /><path
         id="path80"
         style="fill:#ffffff;fill-opacity:1;fill-rule:nonzero;stroke:none"
         d="m 4454.52,3086.12 c -22.09,0 -40.01,17.91 -40.01,40.01 0,22.1 17.92,40.01 40.01,40.01 22.1,0 40.02,-17.91 40.02,-40.01 0,-22.1 -17.92,-40.01 -40.02,-40.01 z m -106.52,0 c -22.1,0 -40.01,17.91 -40.01,40.01 0,22.1 17.91,40.01 40.01,40.01 22.1,0 40.01,-17.91 40.01,-40.01 0,-22.1 -17.91,-40.01 -40.01,-40.01 z m -106.53,0 c -22.09,0 -40.01,17.91 -40.01,40.01 0,22.1 17.92,40.01 40.01,40.01 22.1,0 40.01,-17.91 40.01,-40.01 0,-22.1 -17.91,-40.01 -40.01,-40.01 z M 4348,2912.92 c -19.27,0 -37.85,2.76 -55.64,7.48 -41.92,-45.26 -107.04,-61.7 -107.04,-61.7 15.58,15.57 31.12,57.91 41.56,91.18 -57.78,38.97 -95.78,105.02 -95.78,179.95 0,119.79 97.11,216.9 216.9,216.9 119.79,0 216.9,-97.11 216.9,-216.9 0,-119.8 -97.11,-216.91 -216.9,-216.91 z m 131.44,515.15 h -262.99 c -106.93,0 -193.8,-86.98 -193.8,-193.81 v -262.99 c 0,-106.93 86.87,-193.91 193.8,-193.91 h 262.99 c 106.94,0 193.91,86.98 193.91,193.91 v 262.99 c 0,106.83 -86.97,193.81 -193.91,193.81" /><path
         id="path82"
         style="fill:#ffffff;fill-opacity:1;fill-rule:nonzero;stroke:none"
         d="m 1667.99,3094.22 c 0,-8.98 7.28,-16.27 16.26,-16.27 h 61.66 c 4.15,0 17.71,-1.28 17.71,-17.72 0,-15.03 -11.21,-17.55 -17.71,-17.71 h -61.66 c -8.98,0 -16.26,-7.28 -16.26,-16.27 0,-8.98 7.28,-16.26 16.26,-16.26 h 61.47 c 6.69,-0.16 17.9,-2.68 17.9,-17.72 0,-15.03 -11.21,-17.55 -17.71,-17.71 h -33.96 -27.7 c -8.98,0 -16.26,-7.28 -16.26,-16.27 0,-8.98 7.28,-16.26 16.26,-16.26 h 25.09 c 1.02,-1.48 3.32,-6.1 3.32,-17.72 0,-15.04 -11.21,-17.55 -17.71,-17.71 h -152.91 c -35.37,0 -72.7,30.24 -85.68,41.79 0,30.94 -0.01,154.31 -0.01,198.15 82.91,6.55 116.36,63.02 141.18,104.92 17.91,30.25 28.91,47.37 46.43,47.37 7.41,0 9.19,-2.73 10.14,-4.19 11.54,-17.75 -4.6,-76.29 -20.9,-116.18 h -18.97 c -8.99,0 -16.27,-7.28 -16.27,-16.27 0,-8.98 7.28,-16.27 16.27,-16.27 h 131.49 c 6.69,-0.16 17.9,-2.68 17.9,-17.72 0,-15.03 -11.21,-17.55 -17.71,-17.71 h -61.66 c -8.98,0 -16.26,-7.28 -16.26,-16.27 z m 128.17,-33.99 c 0,-15.01 -5.03,-26.07 -12.3,-33.98 7.27,-7.9 12.3,-18.96 12.3,-33.98 0,-36.86 -30.05,-50.24 -50.25,-50.24 h -2.39 c 1.03,-5.1 1.67,-10.91 1.67,-17.72 0,-36.86 -30.05,-50.25 -50.24,-50.25 h -152.91 c -57.05,0 -111.18,53.46 -113.45,55.74 -3.05,3.05 -4.77,7.19 -4.77,11.5 v 186.37 25.03 c 0,10.87 0,25.75 16.27,25.75 76.38,0 104.57,47.6 129.44,89.59 18.44,31.13 37.51,63.33 74.43,63.33 20.72,0 31.79,-10.34 37.42,-19 20.72,-31.88 0.72,-97.37 -13.18,-133.91 l 77.71,-0.01 c 20.2,0 50.25,-13.38 50.25,-50.25 0,-15.01 -5.03,-26.07 -12.3,-33.98 7.27,-7.91 12.3,-18.97 12.3,-33.99 z M 1388.38,2941.3 c 0,-8.98 -7.29,-16.27 -16.27,-16.27 -8.98,0 -16.27,7.29 -16.27,16.27 v 220.89 c 0,8.99 7.29,16.27 16.27,16.27 8.98,0 16.27,-7.28 16.27,-16.27 z m 319.06,486.77 h -262.99 c -106.94,0 -193.8,-86.98 -193.8,-193.81 v -262.99 c 0,-106.93 86.86,-193.91 193.8,-193.91 h 262.99 c 106.94,0 193.91,86.98 193.91,193.91 v 262.99 c 0,106.83 -86.97,193.81 -193.91,193.81" /><path
         id="path84"
         style="fill:#ffffff;fill-opacity:1;fill-rule:nonzero;stroke:none"
         d="m 2626.46,1178.03 c -16.69,0 -30.24,13.54 -30.24,30.24 0,16.71 13.55,30.25 30.24,30.25 16.71,0 30.25,-13.54 30.25,-30.25 0,-16.7 -13.54,-30.24 -30.25,-30.24 z M 2500,956.781 c -69.6,0 -126.22,56.629 -126.22,126.219 0,69.6 56.62,126.22 126.22,126.22 69.6,0 126.22,-56.62 126.22,-126.22 0,-69.6 -56.62,-126.219 -126.22,-126.219 z m 98.62,321.139 h -197.25 c -53.18,0 -96.29,-43.12 -96.29,-96.29 V 984.371 c 0,-53.18 43.11,-96.281 96.29,-96.281 h 197.25 c 53.19,0 96.3,43.101 96.3,96.281 v 197.259 c 0,53.17 -43.11,96.29 -96.3,96.29" /><path
         id="path86"
         style="fill:#ffffff;fill-opacity:1;fill-rule:nonzero;stroke:none"
         d="m 2500,1160.13 c -42.59,0 -77.12,-34.53 -77.12,-77.13 0,-42.6 34.52,-77.12 77.12,-77.12 42.6,0 77.13,34.53 77.13,77.12 0,42.6 -34.53,77.13 -77.13,77.13" /><path
         id="path88"
         style="fill:#ffffff;fill-opacity:1;fill-rule:nonzero;stroke:none"
         d="m 2744.01,984.371 c 0,-80.16 -65.22,-145.391 -145.39,-145.391 h -197.25 c -80.16,0 -145.38,65.231 -145.38,145.391 v 197.259 c 0,80.17 65.22,145.38 145.38,145.38 h 197.25 c 80.17,0 145.39,-65.21 145.39,-145.38 z m -112.56,423.979 h -263 c -106.93,0 -193.8,-86.97 -193.8,-193.8 V 951.559 c 0,-106.93 86.87,-193.907 193.8,-193.907 h 263 c 106.93,0 193.9,86.977 193.9,193.907 v 262.991 c 0,106.83 -86.97,193.8 -193.9,193.8" /><path
         id="path90"
         style="fill:#ffffff;fill-opacity:1;fill-rule:nonzero;stroke:none"
         d="m 837.695,1083 c 0,6.59 -3.336,12.61 -8.867,16.19 l -333,211.88 c -3.09,1.96 -6.668,3.01 -10.332,3.01 -4.551,0 -8.941,-1.63 -12.437,-4.55 -6.426,-5.45 -8.543,-14.4 -5.207,-22.21 L 555.449,1083 467.852,878.68 c -3.336,-7.809 -1.219,-16.758 5.207,-22.211 3.496,-2.93 7.886,-4.547 12.437,-4.547 3.664,0 7.242,0.969 10.332,3.008 l 333,211.89 c 5.531,3.49 8.867,9.6 8.867,16.18 z m 139.653,131.52 V 951.559 c 0,-106.957 -86.95,-193.907 -193.907,-193.907 H 520.473 c -106.957,0 -193.828,86.95 -193.828,193.907 v 262.961 c 0,106.89 86.871,193.83 193.828,193.83 h 262.968 c 106.957,0 193.907,-86.94 193.907,-193.83 z M 588.961,1102.2 h 163.574 l -224.902,143.07 z m 0,-38.39 H 752.535 L 527.633,920.648 588.961,1063.81" /><path
         id="path92"
         style="fill:#ffffff;fill-opacity:1;fill-rule:nonzero;stroke:none"
         d="m 4373.54,1114.29 v 0.9 c -0.19,-0.31 -0.44,-0.61 -0.61,-0.9 h 0.61" /><path
         id="path94"
         style="fill:#ffffff;fill-opacity:1;fill-rule:nonzero;stroke:none"
         d="m 4560.8,879.66 h -91.24 v 146.81 c 0,36.87 -13.17,62.05 -46.21,62.05 -25.21,0 -40.19,-16.95 -46.8,-33.36 -2.4,-5.86 -3.02,-14.01 -3.02,-22.24 V 879.66 h -91.24 c 0,0 1.22,248.67 0,274.41 h 91.25 v -38.88 c 12.12,18.65 33.75,45.33 82.22,45.33 60.03,0 105.04,-39.22 105.04,-123.5 z m -374.57,311.85 h -0.6 c -30.6,0 -50.42,21.09 -50.42,47.43 0,26.92 20.42,47.41 51.63,47.41 31.22,0 50.4,-20.49 51,-47.41 0,-26.34 -19.78,-47.43 -51.61,-47.43 z m 45.61,-311.85 h -91.21 v 274.41 h 91.21 z m 247.6,528.69 h -262.99 c -106.93,0 -193.8,-86.97 -193.8,-193.8 V 951.559 c 0,-106.93 86.87,-193.907 193.8,-193.907 h 262.99 c 106.94,0 193.91,86.977 193.91,193.907 v 262.991 c 0,106.83 -86.97,193.8 -193.91,193.8" /><path
         id="path96"
         style="fill:#ffffff;fill-opacity:1;fill-rule:nonzero;stroke:none"
         d="m 1514.66,1093.86 c -7.15,-7.15 -11.89,-16.31 -13.83,-26.16 22.11,-6.97 36.84,-21.43 37.64,-22.23 8.27,-8.27 17.43,-21.61 22.4,-37.6 9.78,1.97 18.89,6.68 26,13.8 2.82,2.81 7.43,7.92 13.01,14.36 l -70.85,70.84 c -6.42,-5.56 -11.54,-10.18 -14.37,-13.01" /><path
         id="path98"
         style="fill:#ffffff;fill-opacity:1;fill-rule:nonzero;stroke:none"
         d="m 1620.77,1061.14 c 66.35,82.13 123.24,168.29 130.08,196.71 -28.4,-6.83 -114.52,-63.69 -196.71,-130.08 l 66.63,-66.63" /><path
         id="path100"
         style="fill:#ffffff;fill-opacity:1;fill-rule:nonzero;stroke:none"
         d="m 1515.46,1022.47 c -0.1,0.1 -16.99,16.39 -37.86,16.39 -12.08,0 -23.31,-5.36 -34.34,-16.39 -30.78,-30.79 -39.45,-86.099 -41.89,-114.091 28,2.43 83.31,11.101 114.09,41.883 13.14,13.136 16.95,26.039 16.4,37.226 -0.13,0.641 -0.18,1.301 -0.22,1.953 -1.71,17.719 -13.95,30.789 -16.18,33.029" /><path
         id="path102"
         style="fill:#ffffff;fill-opacity:1;fill-rule:nonzero;stroke:none"
         d="m 1734.35,1160.3 c -31.77,-47.78 -72.17,-100.11 -98.41,-132.03 -0.65,-1.06 -1.39,-2.08 -2.31,-2.99 -0.14,-0.13 -0.3,-0.23 -0.44,-0.36 -10.25,-12.15 -18.5,-21.44 -23.32,-26.272 -12.5,-12.5 -28.71,-20.519 -46.04,-23.257 -2.04,-15.61 -9.35,-32.11 -25.36,-48.121 -51.78,-51.778 -150.15,-52.379 -154.31,-52.379 -8.99,0 -16.27,7.289 -16.27,16.269 0,4.16 0.59,102.539 52.37,154.31 14.61,14.61 30.75,23.04 48.05,25.26 2.73,17.37 10.82,33.61 23.35,46.14 4.84,4.84 14.16,13.11 26.25,23.31 0.13,0.14 0.22,0.31 0.37,0.45 0.92,0.92 1.94,1.67 3.01,2.33 32.04,26.33 84.3,66.67 132.01,98.39 82.41,54.78 108.85,56.46 123.18,42.13 14.34,-14.33 12.66,-40.77 -42.13,-123.18 z m -26.91,248.05 h -262.99 c -106.94,0 -193.8,-86.97 -193.8,-193.8 V 951.559 c 0,-106.93 86.86,-193.907 193.8,-193.907 h 262.99 c 106.94,0 193.91,86.977 193.91,193.907 v 262.991 c 0,106.83 -86.97,193.8 -193.91,193.8" /><path
         id="path104"
         style="fill:#ffffff;fill-opacity:1;fill-rule:nonzero;stroke:none"
         d="m 3343.88,1082.2 c 0,-4.81 -0.81,-9.42 -1.81,-14.03 l 142.87,-83.158 c 10.42,9.418 24.05,15.428 39.28,15.428 32.26,0 58.51,-26.249 58.51,-58.518 0,-32.25 -26.25,-58.5 -58.51,-58.5 -32.27,0 -58.52,26.25 -58.52,58.5 0,4.418 0.61,8.816 1.61,13.027 l -142.67,83.361 c -10.82,-10.02 -25.05,-16.23 -40.88,-16.23 -33.27,0 -60.12,26.86 -60.12,60.12 0,33.26 26.85,60.11 60.12,60.11 15.83,0 30.06,-6.21 40.88,-16.23 l 141.27,82.36 c -1.01,4.61 -1.81,9.22 -1.81,14.03 0,33.26 26.86,60.12 60.12,60.12 33.26,0 60.12,-26.86 60.12,-60.12 0,-33.26 -26.86,-60.12 -60.12,-60.12 -15.83,0 -30.06,6.21 -40.88,16.23 l -141.27,-82.35 c 1,-4.61 1.81,-9.22 1.81,-14.03 z m 211.56,326.15 h -262.99 c -106.93,0 -193.8,-86.97 -193.8,-193.8 V 951.559 c 0,-106.93 86.87,-193.907 193.8,-193.907 h 262.99 c 106.93,0 193.92,86.977 193.92,193.907 v 262.991 c 0,106.83 -86.99,193.8 -193.92,193.8" /><path
         id="path106"
         style="fill:#f5f9f9;fill-opacity:1;fill-rule:nonzero;stroke:none"
         d="m 2601.04,295.309 c -4.32,-4.418 -8.03,-9.297 -11.09,-14.528 l -4.65,2.41 c -0.66,2.981 -3.48,5.028 -6.58,4.668 -3.31,-0.39 -5.68,-3.39 -5.29,-6.699 0.39,-3.308 3.39,-5.68 6.7,-5.289 0.65,0.078 1.27,0.258 1.83,0.531 l 4.51,-2.351 c -2.51,-5.531 -4.32,-11.379 -5.39,-17.442 l 7.46,-1.308 c 2.31,13.058 8.5,25.058 17.92,34.719 l -5.42,5.289" /><path
         id="path108"
         style="fill:#f5f9f9;fill-opacity:1;fill-rule:nonzero;stroke:none"
         d="m 2655.92,318.34 c -1.71,0 -3.41,-0.07 -5.1,-0.18 l -0.73,6.262 c 1.87,1.5 2.96,3.898 2.65,6.449 -0.46,3.93 -4.02,6.75 -7.95,6.277 -3.93,-0.457 -6.74,-4.007 -6.28,-7.949 0.3,-2.539 1.89,-4.609 4.05,-5.64 l 0.73,-6.239 c -7.14,-1.16 -14.03,-3.32 -20.59,-6.461 l 3.27,-6.839 c 9.33,4.472 19.41,6.73 29.95,6.73 4.96,0 9.93,-0.531 14.74,-1.57 l 1.62,7.41 c -5.36,1.148 -10.85,1.75 -16.36,1.75" /><path
         id="path110"
         style="fill:#f5f9f9;fill-opacity:1;fill-rule:nonzero;stroke:none"
         d="m 2721.94,292.859 c 3.31,0.411 5.67,3.422 5.26,6.731 -0.41,3.301 -3.42,5.648 -6.72,5.25 -3.1,-0.379 -5.36,-3.031 -5.3,-6.078 l -4.16,-3.633 c -4.18,4.293 -8.9,8.121 -14.09,11.383 l -4.03,-6.403 c 11.34,-7.148 20.21,-17.269 25.64,-29.257 l 6.9,3.117 c -2.51,5.551 -5.67,10.73 -9.42,15.453 l 4.02,3.519 c 0.6,-0.132 1.25,-0.16 1.9,-0.082" /><path
         id="path112"
         style="fill:#f5f9f9;fill-opacity:1;fill-rule:nonzero;stroke:none"
         d="m 2650.44,216.25 c -3.86,-0.23 -7.74,-0.34 -11.57,-0.34 -8.8,0 -17.33,0.602 -24.78,1.789 -3.9,0.621 -8.46,1.551 -12.7,2.922 10.46,-18.609 30.69,-31.25 53.87,-31.25 28.56,0 52.63,19.16 59.51,45.027 -6.82,-4.488 -15.06,-8.25 -24.59,-11.226 -11.79,-3.672 -25.54,-6.063 -39.74,-6.922" /><path
         id="path114"
         style="fill:#f5f9f9;fill-opacity:1;fill-rule:nonzero;stroke:none"
         d="m 2681.7,247.109 c -7.5,0 -13.6,6.102 -13.6,13.602 0,7.5 6.1,13.609 13.6,13.609 7.5,0 13.6,-6.109 13.6,-13.609 0,-7.5 -6.1,-13.602 -13.6,-13.602 z m -47.37,-9.078 c -10.21,0 -18.5,8.301 -18.5,18.489 0,10.199 8.29,18.5 18.5,18.5 10.19,0 18.49,-8.301 18.49,-18.5 0,-10.188 -8.3,-18.489 -18.49,-18.489 z m 21.59,65.141 c -33.53,0 -60.8,-26.66 -60.8,-59.434 0,-4.258 0.47,-8.5 1.37,-12.617 6.74,-4.82 27.06,-8.891 53.48,-7.301 28.79,1.731 52.97,9.571 66.72,21.578 -0.06,1.954 -0.21,3.911 -0.45,5.821 -3.81,29.621 -29.74,51.953 -60.32,51.953" /><path
         id="path116"
         style="fill:#f5f9f9;fill-opacity:1;fill-rule:nonzero;stroke:none"
         d="m 2815.95,284.5 c -2.94,1.16 -8.05,3.09 -13.82,2.379 -5.51,-0.688 -8.44,-3.41 -8.44,-10.07 v -8.661 h 22.28 V 250.98 h -22.28 v -54.539 h -19.31 v 54.539 h -13.4 v 17.168 h 13.4 v 8.883 c 0,16.801 8.95,27.828 25.68,27.828 6.42,0 11.57,-1.218 15.9,-3.078 l -0.01,-17.281" /><path
         id="path118"
         style="fill:#f5f9f9;fill-opacity:1;fill-rule:nonzero;stroke:none"
         d="m 2862.98,251.18 c -1.77,0.3 -3.58,0.461 -5.27,0.461 -8.95,0 -15.09,-5.469 -15.09,-16.129 v -39.071 h -19.32 v 71.707 h 18.72 v -7.847 c 4.52,6.738 11.41,9.781 20.22,9.781 4.14,0 8.47,-1.281 10.93,-3.371 l -10.19,-15.531" /><path
         id="path120"
         style="fill:#f5f9f9;fill-opacity:1;fill-rule:nonzero;stroke:none"
         d="m 2888.51,239.059 h 31.74 c -1.76,9.183 -7.32,14.363 -15.61,14.363 -9.1,0 -14.43,-5.481 -16.13,-14.363 z m 51.14,-6.661 c 0,-2.207 -0.15,-4.878 -0.37,-6.507 h -50.84 c 2.07,-10.36 9.32,-14.871 18.43,-14.871 6.21,0 12.94,2.511 18.12,6.871 l 11.33,-12.43 c -8.15,-7.469 -18.51,-10.879 -30.57,-10.879 -21.98,0 -37.22,14.949 -37.22,37.527 0,22.571 14.8,37.973 36.26,37.973 20.65,0 34.79,-15.32 34.86,-37.684" /><path
         id="path122"
         style="fill:#f5f9f9;fill-opacity:1;fill-rule:nonzero;stroke:none"
         d="m 2965.04,239.059 h 31.75 c -1.77,9.183 -7.33,14.363 -15.62,14.363 -9.1,0 -14.43,-5.481 -16.13,-14.363 z m 51.14,-6.661 c 0,-2.207 -0.14,-4.878 -0.37,-6.507 h -50.84 c 2.07,-10.36 9.32,-14.871 18.43,-14.871 6.21,0 12.95,2.511 18.13,6.871 l 11.32,-12.43 c -8.14,-7.469 -18.5,-10.879 -30.56,-10.879 -21.99,0 -37.23,14.949 -37.23,37.527 0,22.571 14.8,37.973 36.26,37.973 20.65,0 34.79,-15.32 34.86,-37.684" /><path
         id="path124"
         style="fill:#f5f9f9;fill-opacity:1;fill-rule:nonzero;stroke:none"
         d="m 3042.87,232.32 c 0,-11.308 7.47,-19.75 18.43,-19.75 11.4,0 18.5,8.809 18.5,19.75 0,10.961 -7.1,19.77 -18.5,19.77 -10.96,0 -18.43,-8.442 -18.43,-19.77 z m 56.77,0 c 0,-21.531 -14.95,-37.738 -34.71,-37.738 -9.63,0 -16.43,3.777 -21.09,9.328 v -37.078 h -19.25 v 101.316 h 18.88 v -7.918 c 4.66,5.84 11.54,9.852 21.38,9.852 19.84,0 34.79,-16.211 34.79,-37.762" /><path
         id="path126"
         style="fill:#f5f9f9;fill-opacity:1;fill-rule:nonzero;stroke:none"
         d="m 3128.09,196.441 h -19.32 v 71.707 h 19.32 z m 2.58,95.168 c 0,-6.949 -5.4,-12.277 -12.36,-12.277 -6.95,0 -12.28,5.328 -12.28,12.277 0,6.961 5.33,12.43 12.28,12.43 6.96,0 12.36,-5.469 12.36,-12.43" /><path
         id="path128"
         style="fill:#f5f9f9;fill-opacity:1;fill-rule:nonzero;stroke:none"
         d="m 3160.32,242.621 27.01,25.527 h 23.7 l -34.8,-33.75 35.01,-37.957 h -23.76 l -27.16,29 v -29 h -19.31 v 106.571 h 19.31 v -60.391" /><path
         id="path130"
         style="fill:#f5f9f9;fill-opacity:1;fill-rule:nonzero;stroke:none"
         d="m 1844.13,216.27 v 32.082 c -3.96,6.148 -12.46,11.429 -21.24,11.429 -14.21,0 -22.71,-11.722 -22.71,-27.402 0,-15.668 8.5,-27.238 22.71,-27.238 8.78,0 17.28,4.98 21.24,11.129 z m 0,-19.188 v 10.547 c -5.28,-7.18 -13.92,-12.309 -23.88,-12.309 -18.46,0 -31.5,14.071 -31.5,37.059 0,22.562 12.9,37.211 31.5,37.211 9.52,0 18.16,-4.692 23.88,-12.449 v 37.648 h 10.98 v -97.707 h -10.98" /><path
         id="path132"
         style="fill:#f5f9f9;fill-opacity:1;fill-rule:nonzero;stroke:none"
         d="m 1904.03,260.512 c -15.08,0 -22.56,-12.75 -23.14,-23.59 h 46.43 c -0.14,10.547 -7.17,23.59 -23.29,23.59 z m -34.71,-27.981 c 0,20.508 14.64,37.059 34.86,37.059 21.39,0 33.98,-16.699 33.98,-37.942 v -2.777 h -57.27 c 0.88,-13.332 10.25,-24.473 25.49,-24.473 8.05,0 16.26,3.231 21.82,8.942 l 5.28,-7.18 c -7.03,-7.031 -16.56,-10.84 -28.13,-10.84 -20.95,0 -36.03,15.09 -36.03,37.211" /><path
         id="path134"
         style="fill:#f5f9f9;fill-opacity:1;fill-rule:nonzero;stroke:none"
         d="m 1946.07,206.461 5.71,7.91 c 4.69,-5.422 13.63,-10.109 23.29,-10.109 10.84,0 16.7,5.129 16.7,12.16 0,17.129 -43.8,6.59 -43.8,32.808 0,10.989 9.53,20.36 26.37,20.36 12.01,0 20.51,-4.539 26.22,-10.25 l -5.13,-7.621 c -4.24,5.133 -12.01,8.929 -21.09,8.929 -9.67,0 -15.67,-4.828 -15.67,-11.128 0,-15.532 43.79,-5.27 43.79,-32.809 0,-11.871 -9.52,-21.391 -27.83,-21.391 -11.57,0 -21.38,3.52 -28.56,11.141" /><path
         id="path136"
         style="fill:#f5f9f9;fill-opacity:1;fill-rule:nonzero;stroke:none"
         d="m 2016.67,197.082 v 70.75 h 10.99 v -70.75 z m -1.9,88.18 c 0,4.109 3.37,7.457 7.32,7.457 4.11,0 7.47,-3.348 7.47,-7.457 0,-4.102 -3.36,-7.321 -7.47,-7.321 -3.95,0 -7.32,3.219 -7.32,7.321" /><path
         id="path138"
         style="fill:#f5f9f9;fill-opacity:1;fill-rule:nonzero;stroke:none"
         d="m 2097.08,217.441 v 30.911 c -3.8,6.148 -12.3,11.429 -21.08,11.429 -14.22,0 -22.71,-11.281 -22.71,-26.961 0,-15.519 8.49,-26.949 22.71,-26.949 8.78,0 17.28,5.418 21.08,11.57 z m -51.26,-38.519 5.57,8.199 c 5.86,-7.031 12.89,-9.672 22.99,-9.672 11.72,0 22.7,5.711 22.7,21.242 v 10.11 c -5.12,-7.18 -13.76,-12.602 -23.73,-12.602 -18.45,0 -31.48,13.77 -31.48,36.621 0,22.711 12.88,36.77 31.48,36.77 9.53,0 18.03,-4.692 23.73,-12.449 v 10.691 h 10.99 v -68.703 c 0,-23.438 -16.4,-30.758 -33.69,-30.758 -12.01,0 -20.21,2.34 -28.56,10.551" /><path
         id="path140"
         style="fill:#f5f9f9;fill-opacity:1;fill-rule:nonzero;stroke:none"
         d="m 2174.13,197.082 v 46.289 c 0,12.449 -6.29,16.41 -15.81,16.41 -8.65,0 -16.86,-5.281 -20.95,-10.992 v -51.707 h -10.99 v 70.75 h 10.99 v -10.25 c 4.98,5.859 14.64,12.008 25.19,12.008 14.79,0 22.56,-7.469 22.56,-22.848 v -49.66 h -10.99" /><path
         id="path142"
         style="fill:#f5f9f9;fill-opacity:1;fill-rule:nonzero;stroke:none"
         d="m 2234.04,260.512 c -15.08,0 -22.56,-12.75 -23.14,-23.59 h 46.43 c -0.15,10.547 -7.18,23.59 -23.29,23.59 z m -34.71,-27.981 c 0,20.508 14.64,37.059 34.86,37.059 21.38,0 33.98,-16.699 33.98,-37.942 v -2.777 h -57.27 c 0.88,-13.332 10.25,-24.473 25.49,-24.473 8.05,0 16.25,3.231 21.82,8.942 l 5.28,-7.18 c -7.03,-7.031 -16.56,-10.84 -28.13,-10.84 -20.95,0 -36.03,15.09 -36.03,37.211" /><path
         id="path144"
         style="fill:#f5f9f9;fill-opacity:1;fill-rule:nonzero;stroke:none"
         d="m 2333.5,216.27 v 32.082 c -3.96,6.148 -12.45,11.429 -21.24,11.429 -14.21,0 -22.7,-11.722 -22.7,-27.402 0,-15.668 8.49,-27.238 22.7,-27.238 8.79,0 17.28,4.98 21.24,11.129 z m 0,-19.188 v 10.547 c -5.27,-7.18 -13.92,-12.309 -23.88,-12.309 -18.45,0 -31.49,14.071 -31.49,37.059 0,22.562 12.89,37.211 31.49,37.211 9.52,0 18.17,-4.692 23.88,-12.449 v 37.648 h 10.99 v -97.707 h -10.99" /><path
         id="path146"
         style="fill:#f5f9f9;fill-opacity:1;fill-rule:nonzero;stroke:none"
         d="m 2429,205.141 c 14.35,0 22.85,11.57 22.85,27.238 0,15.68 -8.5,27.402 -22.85,27.402 -8.64,0 -17.29,-5.281 -21.09,-11.429 V 216.27 c 3.8,-6.149 12.45,-11.129 21.09,-11.129 z m -32.08,-8.059 v 97.707 h 10.99 v -37.648 c 5.71,7.757 14.2,12.449 23.87,12.449 18.46,0 31.5,-14.649 31.5,-37.211 0,-22.988 -13.04,-37.059 -31.5,-37.059 -9.96,0 -18.6,5.129 -23.87,12.309 v -10.547 h -10.99" /><path
         id="path148"
         style="fill:#f5f9f9;fill-opacity:1;fill-rule:nonzero;stroke:none"
         d="m 2475.28,179.359 c 1.61,-0.738 4.26,-1.179 6.01,-1.179 4.83,0 8.06,1.621 10.55,7.468 l 4.69,10.704 -29.6,71.48 h 11.87 l 23.58,-58.012 23.44,58.012 h 12.01 l -35.45,-85.113 c -4.25,-10.25 -11.42,-14.199 -20.8,-14.348 -2.34,0 -6,0.438 -8.05,1.02 l 1.75,9.968" /></g></g></svg>